# xmcd CD database file
#
# Track frame offsets:
#	150
#	19922
#	35113
#	57628
#	73502
#	81870
#	98298
#	128402
#	132766
#	150031
#	169648
#
# Disc length: 2472 seconds
#
# Revision: 0
# Processed by: cddbd v1.4PL0 Copyright (c) Steve Scherf et al.
# Submitted via: CDex 1.50Beta7
#
DISCID=7e09a60b
DTITLE=Doobie Brothers - Stampede
DYEAR=1975
DGENRE=Country
TTITLE0=Sweet Maxine 
TTITLE1=Neal's Fandango 
TTITLE2=Texas Lullaby 
TTITLE3=Music Man 
TTITLE4=Slat Key Soquel Rag 
TTITLE5=Take Me In Your Arms (Rock Me A Little While)
TTITLE6=I Cheat The Hangman 
TTITLE7=Precis 
TTITLE8=Rainy Day Crossroad Blues 
TTITLE9=I Been Workin' On You 
TTITLE10=Double Dealin' Four Flusher 
EXTD=YEAR: 1975
EXTT0=
EXTT1=
EXTT2=
EXTT3=
EXTT4=
EXTT5=
EXTT6=
EXTT7=
EXTT8=
EXTT9=
EXTT10=
PLAYORDER=
